<?xml version="1.0" encoding="utf-8" ?>
<svg baseProfile="full" height="200mm" version="1.1" viewBox="0,0,200,200" width="200mm" xmlns="http://www.w3.org/2000/svg" xmlns:ev="http://www.w3.org/2001/xml-events" xmlns:xlink="http://www.w3.org/1999/xlink"><defs /><rect fill="#1a1a1a" height="200" width="200" x="0" y="0" /><rect fill="#1a1a1a" height="200" width="180" x="10" y="0" /><text alignment-baseline="middle" fill="#e1ed5e" style="dominant-baseline: central; font-size:9.0px; font-family:Arial;" text-anchor="middle" x="100.0" y="100.0">2026</text><line stroke="#e1ed5e" stroke-width="0.3" x1="100.0" x2="100.0" y1="15.0" y2="10.0" /><path d="M 100.0 14.0 a86.0,86.0 0 0,1 42.46469731375804,11.215312516191453" fill="none" id="id37" stroke="none" /><text fill="#e1ed5e" style="font-size:6.75px; font-family:Arial;" text-anchor="middle"><textPath startOffset="22.20632615414155" xlink:href="#id37">January</textPath></text><path d="M 101.08401301168833 79.027996857942 l 1.0407082162001813 -20.134201107164404 a41.16107953000054,41.16107953000054 0 0,0 0.7072609335788184,0.04266391095930484 l -1.3871311986186117 20.113303926824795" fill="#ffe815" stroke="none" /><path d="M 102.52436894288641 79.15227682838746 l 1.517660800900477 -12.533735345913213 a33.625284789975396,33.625284789975396 0 0,0 0.5740080641397772,0.07452272086709069 l -1.7331835935481004 12.505754301881986" fill="#ff820b" stroke="none" /><path d="M 103.95276090670814 79.375362276772 l 4.751541497954874 -24.792499302422307 a46.243715421217175,46.243715421217175 0 0,0 0.7804917188724986,0.15655929632094928 l -5.177599626294499 24.70703605002415" fill="#d6ff1c" stroke="none" /><path d="M 105.01212808612495 79.60689891045804 l 3.0111524936588108 -12.251629675866113 a33.61623830841154,33.61623830841154 0 0,0 0.5607366416801196,0.14294425528640364 l -3.2215980240239555 12.19798242441084" fill="#ff820b" stroke="none" /><path d="M 106.0581310904928 79.89281104454417 l 15.508260007899514 -51.47255972036242 a74.75807411579112,74.75807411579112 0 0,0 1.2289324139403492,0.38183528314772786 l -16.39197779455058 51.19798430233217" fill="#41ffcf" stroke="none" /><path d="M 107.76421540070413 80.48803036053334 l 2.795019159579071 -7.024061823231819 a28.55973389736681,28.55973389736681 0 0,0 0.4552096959862848,0.1856914646275836 l -2.9155127251537434 6.974909472420656" fill="#ff3905" stroke="none" /><path d="M 108.09893153111575 80.62456947434976 l 5.075849344238166 -12.143177893294917 a34.161345520637674,34.161345520637674 0 0,0 0.540589046297379,0.23145201743345378 l -5.28412214832586 12.054006347898671" fill="#ff890c" stroke="none" /><path d="M 108.43124777332544 80.76684994638697 l 25.2937433199763 -57.69945016083909 a84.0,84.0 0 0,0 1.3192715261328791,0.591918677933875 l -26.283196964575957 57.255511152388685" fill="#4dd2ff" stroke="none" /><path d="M 109.41281617654863 81.2277094730956 l 16.981417840091638 -33.866603073283855 a58.8855560284278,58.8855560284278 0 0,0 0.9021814326024464,0.462132370695926 l -17.56185976028284 33.56927817727543" fill="#47ff2c" stroke="none" /><path d="M 110.05341064243156 81.56283822128135 l 6.051932136004095 -11.098765964497254 a33.64153821785473,33.64153821785473 0 0,0 0.506026263313467,0.2816030676709337 l -6.242082488389597 10.99294749926614" fill="#ff820c" stroke="none" /><path d="M 110.36928655335952 81.73862282372117 l 5.6071187645872875 -9.874711254762724 a32.355602282799644,32.355602282799644 0 0,0 0.481949434148191,0.2791762199421104 l -5.7762649312008065 9.776730877430564" fill="#ff700a" stroke="none" /><line stroke="#e1ed5e" stroke-width="0.3" x1="143.23703022742887" x2="145.7803849466894" y1="26.81831364943548" y2="22.513508569990506" /><path d="M 143.74570117128098 25.957352633546492 a86.0,86.0 0 0,1 28.547481713284135,27.462654790039103" fill="none" id="id38" stroke="none" /><text fill="#e1ed5e" style="font-size:6.75px; font-family:Arial;" text-anchor="middle"><textPath startOffset="19.985693538727396" xlink:href="#id38">February</textPath></text><path d="M 112.48926042617603 83.11751280151076 l 7.513014837648352 -10.155795658870213 a33.632718528307805,33.632718528307805 0 0,0 0.4624560397433608,0.3483123014155362 l -7.686717031150095 10.024966767948829" fill="#ff820c" stroke="none" /><line stroke="#e1ed5e" stroke-width="0.3" x1="172.23445277983987" x2="176.4835382374775" y1="55.19839476539836" y2="52.563006222186495" /><path d="M 173.08426987136738 54.67131705675599 a86.0,86.0 0 0,1 12.851231095245387,41.99856678651699" fill="none" id="id39" stroke="none" /><text fill="#e1ed5e" style="font-size:6.75px; font-family:Arial;" text-anchor="middle"><textPath startOffset="22.20632615414155" xlink:href="#id39">March</textPath></text><path d="M 117.84615892207809 88.93136811851018 l 30.766451679701785 -19.082118983092013 a57.203616032715644,57.203616032715644 0 0,0 0.5117931301641971,0.8412533390471747 l -31.090360608152206 18.549697870837758" fill="#59ff2a" stroke="none" /><path d="M 118.21658344932153 89.55222093294921 l 17.496922575735248 -10.035031098621495 a41.17037800269431,41.17037800269431 0 0,0 0.34728656515616196,0.6177840481365142 l -17.667066782183845 9.732363540550185" fill="#ffe815" stroke="none" /><path d="M 120.83666639777658 97.38593545837742 l 25.083079543900055 -3.146798416727754 a46.27969975456864,46.27969975456864 0 0,0 0.09236027999113641,0.7912864754916022 l -25.13353017689478 2.714568202911299" fill="#d6ff1c" stroke="none" /><path d="M 120.87857604477298 97.74499172005257 l 25.080867910391223 -2.7088803702376696 a46.22673121906109,46.22673121906109 0 0,0 0.07863579568856739,0.7918517311926417 l -25.12378083176202 2.2767531083405927" fill="#d7ff1c" stroke="none" /><line stroke="#e1ed5e" stroke-width="0.3" x1="184.98032266829074" x2="189.97916517819016" y1="98.17113171792111" y2="98.06355123074" /><path d="M 185.9800911702706 98.14961562048488 a86.0,86.0 0 0,1 -9.607161424134198,41.387399972396054" fill="none" id="id40" stroke="none" /><text fill="#e1ed5e" style="font-size:6.75px; font-family:Arial;" text-anchor="middle"><textPath startOffset="21.466115282336823" xlink:href="#id40">April</textPath></text><path d="M 120.9764740272857 100.99374915477107 l 6.296798387433378 0.2983074308454409 a27.303860504110254,27.303860504110254 0 0,0 -0.02628145979266343,0.4692731194840732 l -6.290730576753185 -0.4066522666649375" fill="#ff2603" stroke="none" /><path d="M 120.89721153311464 102.0752229133903 l 12.564064691400334 1.2476896686237395 a33.62586436957419,33.62586436957419 0 0,0 -0.06215612689831681,0.5754885397251478 l -12.540726263000966 -1.4637745302336787" fill="#ff820b" stroke="none" /><path d="M 120.81339534386255 102.79330883721812 l 20.02588581117703 2.6876193377058377 a41.2054299688651,41.2054299688651 0 0,0 -0.1003959489345694,0.7021690330167865 l -19.976655811225857 -3.0319338427030336" fill="#ffe815" stroke="none" /><path d="M 120.49622156327973 104.57218783832717 l 8.717260886551685 1.9446000857261878 a29.931523210382995,29.931523210382995 0 0,0 -0.11650408419301088,0.5018965455083217 l -8.68249623642812 -2.0943652885830746" fill="#ff4d07" stroke="none" /><path d="M 120.32669344350535 105.2749913415812 l 22.80869861330981 5.919097861752178 a44.56421973946517,44.56421973946517 0 0,0 -0.19907881809937958,0.7408463412859285 l -22.703431718868654 -6.3108351362136546" fill="#ebff1a" stroke="none" /><path d="M 120.13307415673323 105.97154293290107 l 12.196493030321498 3.6175241393543454 a33.721671397166816,33.721671397166816 0 0,0 -0.169850000960284,0.5550796305934931 l -12.132416256855082 -3.8269307424998957" fill="#ff830c" stroke="none" /><path d="M 119.79798401119884 107.00284435728193 l 9.492102322330902 3.3574991852239866 a31.068406392095,31.068406392095 0 0,0 -0.18267592565018417,0.5026456912010987 l -9.43290213567549 -3.5203926734312163" fill="#ff5d08" stroke="none" /><path d="M 119.54520255179757 107.68017299344265 l 11.772935436826677 4.626106102294878 a33.649223947317054,33.649223947317054 0 0,0 -0.21647248512143236,0.5372669552921022 l -11.691560337447852 -4.828072425429794" fill="#ff820c" stroke="none" /><path d="M 119.26925614724726 108.34839909993367 l 45.31643496167481 19.633331040663652 a70.38670838786474,70.38670838786474 0 0,0 -0.49122855384103203,1.1075907083606664 l -44.9717653231025 -20.41047008551701" fill="#3bff9e" stroke="none" /><path d="M 118.97047184881838 109.00673069616215 l 11.386776676489006 5.406171856967536 a33.60497430490447,33.60497430490447 0 0,0 -0.25259217883692264,0.5204147037360988 l -11.29203124103737 -5.60137551666891" fill="#ff810b" stroke="none" /><path d="M 118.81262510543309 109.33194174019688 l 22.617088764184707 11.219133613590085 a46.24681491211509,46.24681491211509 0 0,0 -0.3598912386231456,0.7100995566941211 l -22.42061885577529 -11.6067873819869" fill="#d6ff1c" stroke="none" /><line stroke="#e1ed5e" stroke-width="0.3" x1="174.80103733775053" x2="179.2010983576182" y1="140.37084112569926" y2="142.7455964860345" /><path d="M 175.68104954172406 140.8457921977663 a86.0,86.0 0 0,1 -30.038265399797805,32.042727171017184" fill="none" id="id41" stroke="none" /><text fill="#e1ed5e" style="font-size:6.75px; font-family:Arial;" text-anchor="middle"><textPath startOffset="22.206326154141568" xlink:href="#id41">May</textPath></text><path d="M 118.30583269289576 110.29060199501025 l 11.007231926329807 6.1877022870742655 a33.627225121675714,33.627225121675714 0 0,0 -0.2879899672889492,0.5021347827148671 l -10.899089962888478 -6.376256915647447" fill="#ff820b" stroke="none" /><path d="M 118.12598468904814 110.60418214915192 l 43.53656795793634 25.47004781780671 a71.43962812509,71.43962812509 0 0,0 -0.6300945410368317,1.0560746937480154 l -43.09169254120128 -26.215684605440828" fill="#3dffaa" stroke="none" /><path d="M 117.55443506779139 111.5257021239791 l 19.036819820452934 12.498990357199077 a43.77334557823565,43.77334557823565 0 0,0 -0.4189669774766052,0.6262987851415373 l -18.81884973756561 -12.82482605654642" fill="#f5ff19" stroke="none" /><path d="M 116.93607887273984 112.41649034213515 l 10.168544807055772 7.454951015467907 a33.608552578949215,33.608552578949215 0 0,0 -0.34607003989920837,0.46361737240264683 l -10.038713500461473 -7.628881267379869" fill="#ff810b" stroke="none" /><path d="M 116.27256486870786 113.27417163493432 l 9.777117573187802 7.9755796218087545 a33.617523463174095,33.617523463174095 0 0,0 -0.36963907815807423,0.44525408166645564 l -9.638382495136185 -8.142694960588981" fill="#ff820b" stroke="none" /><path d="M 116.0416608686014 113.55231037782055 l 19.284965198661066 16.292317618388168 a46.24578174848246,46.24578174848246 0 0,0 -0.5189602318945171,0.6036679925922321 l -19.00166245719577 -16.621862710141926" fill="#d6ff1c" stroke="none" /><path d="M 115.32070863581623 114.36230785411682 l 18.404094946930098 17.252810146540813 a46.22637843147921,46.22637843147921 0 0,0 -0.5491989796252763,0.5758329344685166 l -18.104389415925855 -17.56705019759184" fill="#d7ff1c" stroke="none" /><path d="M 114.55890576462653 115.13401014063108 l 10.937505428967498 11.369557626877583 a36.77643386952779,36.77643386952779 0 0,0 -0.459992919829579,0.43495201700927943 l -10.74017667474711 -11.556144280632783" fill="#ffad10" stroke="none" /><path d="M 112.34349029814194 116.9893568818739 l 8.88109033712758 12.223772174093636 a36.10941334865013,36.10941334865013 0 0,0 -0.50600064551983,0.3610180254280019 l -8.669362363758864 -12.374834461365857" fill="#ffa40f" stroke="none" /><path d="M 112.04921762599082 117.19931262002967 l 2.1727010991716282 3.101360320186103 a24.786695908304026,24.786695908304026 0 0,0 -0.35154984424926206,0.2417991884772673 l -2.118994370299483 -3.138300298028464" fill="#ff0000" stroke="none" /><path d="M 111.45004920935366 117.60387380957326 l 6.878113891788256 10.574753591451865 a33.61482715808404,33.61482715808404 0 0,0 -0.4877642645769176,0.3113142314204246 l -6.695067825164408 -10.691582251696097" fill="#ff820b" stroke="none" /><path d="M 111.1453310114006 117.79835938074945 l 26.78476493994531 42.77350505268987 a71.46777553430118,71.46777553430118 0 0,0 -1.0482648285301726,0.6439298752957359 l -26.044520911482827 -43.22822339481398" fill="#3dffaa" stroke="none" /><line stroke="#e1ed5e" stroke-width="0.3" x1="143.8653032363475" x2="146.44561519142675" y1="172.8068346515853" y2="177.08958963109032" /><path d="M 144.38136562736335 173.6633856474863 a86.0,86.0 0 0,1 -40.68145358897372,12.25698825130547" fill="none" id="id42" stroke="none" /><text fill="#e1ed5e" style="font-size:6.75px; font-family:Arial;" text-anchor="middle"><textPath startOffset="21.466115282336833" xlink:href="#id42">June</textPath></text><path d="M 109.2508944713604 118.85261126421891 l 3.400982738876606 6.930941185293875 a28.720403441798847,28.720403441798847 0 0,0 -0.4456959834097505,0.21396115693698792 l -3.281174087466623 -6.988456618730423" fill="#ff3b05" stroke="none" /><path d="M 108.59647513512805 119.15986991738527 l 6.188996666125654 13.794068985035501 a36.118863016021834,36.118863016021834 0 0,0 -0.5694385142606436,0.24962511039651114 l -5.950637477207256 -13.898558648726466" fill="#ffa40f" stroke="none" /><path d="M 108.2653958097858 119.30500536409082 l 4.955135349018384 11.573422095447714 a33.58957764686683,33.58957764686683 0 0,0 -0.5334801337455333,0.22299473917215282 l -4.75518375577539 -11.657001877639841" fill="#ff810b" stroke="none" /><path d="M 107.59598834532513 119.57807347666477 l 4.544361868912656 11.712741848647148 a33.56342096758194,33.56342096758194 0 0,0 -0.5404186724904022,0.2043401001482451 l -4.342072975661979 -11.789230198902025" fill="#ff810b" stroke="none" /><path d="M 106.91757812671514 119.82793768551818 l 2.9789418604226343 8.538577012832329 a30.043306475612056,30.043306475612056 0 0,0 -0.4897491966307149,0.1661495179896125 l -2.8315229308546925 -8.588589517720065" fill="#ff4e07" stroke="none" /><path d="M 106.2309692047433 120.05430185196036 l 7.494627588382191 24.121371649699554 a46.2588600881249,46.2588600881249 0 0,0 -0.7624451966841582,0.22971848332761846 l -7.078307417257787 -24.2468055021329" fill="#d6ff1c" stroke="none" /><path d="M 104.48393922423573 120.51570834832081 l 1.0760644905299557 4.923399749125684 a26.039621005340614,26.039621005340614 0 0,0 -0.4387162025158301,0.09193724579493036 l -0.9911568265847476 -4.941192975647155" fill="#ff1302" stroke="none" /><path d="M 104.13013068566511 120.58985236759428 l 1.9896237271685169 9.91882870719994 a31.116410702343277,31.116410702343277 0 0,0 -0.5260635008390229,0.1008213219774832 l -1.8185926117577895 -9.951607227525892" fill="#ff5e08" stroke="none" /><path d="M 103.41894727170886 120.7198165907248 l 2.143518330044991 12.990345602841144 a34.16600735654105,34.16600735654105 0 0,0 -0.5810891672116207,0.09075417721614744 l -1.9195932992248532 -13.025318087404397" fill="#ff890c" stroke="none" /><path d="M 101.98527174616119 120.90594882070398 l 1.7866149775671905 18.813989246331737 a39.89862916825328,39.89862916825328 0 0,0 -0.6842722861556898,0.05904189211713335 l -1.462498373669959 -18.841955390727534" fill="#ffd714" stroke="none" /><path d="M 100.90346689309514 120.98055641714683 l 1.0890841375161662 25.291011065052242 a46.314449331383535,46.314449331383535 0 0,0 -0.796784188896399,0.02744285851499387 l -0.6535795969451148 -25.30601072199333" fill="#d6ff1c" stroke="none" /><line stroke="#e1ed5e" stroke-width="0.3" x1="102.19456741930631" x2="102.32365962044197" y1="184.97166512339345" y2="189.96999836594603" /><path d="M 102.22038585953345 185.97133177190398 a86.0,86.0 0 0,1 -42.740103519485714,-10.115201625700543" fill="none" id="id43" stroke="none" /><text fill="#e1ed5e" style="font-size:6.75px; font-family:Arial;" text-anchor="middle"><textPath startOffset="22.20632615414155" xlink:href="#id43">July</textPath></text><path d="M 100.18074693466247 120.99922214144158 l 0.10856037900418998 12.612570822986786 a33.61303802106166,33.61303802106166 0 0,0 -0.5786146273332822,0.0 l 0.10856037900418129 -12.612570822986786" fill="#ff820b" stroke="none" /><path d="M 99.45781275523022 120.99299961872073 l -0.6517058637825802 25.23346146904473 a46.24187588596881,46.24187588596881 0 0,0 -0.7955356503803627,-0.02739985632403157 l 1.0859618658375858 -25.218504814294604" fill="#d6ff1c" stroke="none" /><path d="M 99.09653310690486 120.98055641714683 l -1.1529584440294258 26.774317760239125 a47.7991306706004,47.7991306706004 0 0,0 -0.8217169757880711,-0.04247338166248408 l 1.613663488230986 -26.75050457181444" fill="#c4ff1e" stroke="none" /><path d="M 98.73552117531835 120.96189622390904 l -0.761579915906374 12.625090157173647 a33.648039589006466,33.648039589006466 0 0,0 -0.5778445763133598,-0.03985154516000793 l 0.9787872529986639 -12.610110267497353" fill="#ff820c" stroke="none" /><path d="M 98.01472825383883 120.90594882070398 l -1.6674814253636858 17.559450692599324 a38.63844672667522,38.63844672667522 0 0,0 -0.6615774267001772,-0.06857520530436333 l 1.9694914486694564 -17.5281461188392" fill="#ffc612" stroke="none" /><path d="M 96.58105272829116 120.7198165907248 l -0.9925565690890978 6.015181994066308 a27.096522202418477,27.096522202418477 0 0,0 -0.4595454405677036,-0.07989786532908898 l 1.0959509811288513 -5.997205550216212" fill="#ff2303" stroke="none" /><path d="M 94.46302465271185 120.25689768951611 l -5.313063516359989 19.43772137644015 a41.150773092787134,41.150773092787134 0 0,0 -0.6816700651133307,-0.19264676941926714 l 5.646864749577934 -19.343385813682364" fill="#ffe715" stroke="none" /><path d="M 93.76903079525671 120.05430185196036 l -8.97260133727423 28.878212955702434 a51.24001915132587,51.24001915132587 0 0,0 -0.8400402319491869,-0.26895435467394135 l 9.468362914314358 -28.719485754368787" fill="#9bff22" stroke="none" /><path d="M 93.08242187328487 119.8279376855182 l -8.307359197078538 23.811483943312894 a46.21902029048577,46.21902029048577 0 0,0 -0.7489251681766704,-0.26853791982696446 l 8.716003925884936 -23.66495848244597" fill="#d7ff1c" stroke="none" /><path d="M 92.7421414339146 119.70592522655815 l -8.719905613310663 23.675552014955418 a46.230309493105835,46.230309493105835 0 0,0 -0.7443735401470319,-0.2814583793716908 l 9.12614937421798 -23.521945385477096" fill="#d7ff1c" stroke="none" /><path d="M 90.7491055286396 118.85261126421891 l -11.147039072232007 22.716808090985143 a46.304344487074054,46.304344487074054 0 0,0 -0.7125270465861568,-0.35727585297714587 l 11.536420026500924 -22.521564397098697" fill="#d6ff1c" stroke="none" /><path d="M 90.42595943632237 118.69057910512821 l -7.027665183126302 13.719508618743749 a36.41470060253879,36.41470060253879 0 0,0 -0.5554266611793846,-0.29057297804388554 l 7.262782746832182 -13.596506221755146" fill="#ffa80f" stroke="none" /><line stroke="#e1ed5e" stroke-width="0.3" x1="58.666819895761336" x2="56.23545636021788" y1="174.27360380694188" y2="178.64263932499728" /><path d="M 58.180547188652646 175.14741091055294 a86.0,86.0 0 0,1 -31.652253787137756,-30.449443065178592" fill="none" id="id44" stroke="none" /><text fill="#e1ed5e" style="font-size:6.75px; font-family:Arial;" text-anchor="middle"><textPath startOffset="22.20632615414155" xlink:href="#id44">August</textPath></text><path d="M 88.8546689885994 117.79835938074946 l -13.390028658917196 21.382993645156347 a46.229452723264146,46.229452723264146 0 0,0 -0.6708074060090474,-0.42814102466890325 l 13.756117866973167 -21.14933819166364" fill="#d7ff1c" stroke="none" /><path d="M 87.95078237400918 117.19931262002967 l -7.238789832429873 10.332804434546487 a33.61613751195958,33.61613751195958 0 0,0 -0.47106241014493405,-0.3360905221557002 l 7.415579570423694 -10.206669650546567" fill="#ff820b" stroke="none" /><path d="M 87.65650970185807 116.9893568818739 l -14.810704228738215 20.38518552988124 a46.19747504887828,46.19747504887828 0 0,0 -0.6393181227579714,-0.4729522632786519 l 15.15940732191475 -20.127223317862825" fill="#d7ff1c" stroke="none" /><path d="M 86.51685102203217 116.09983520530335 l -16.191958482296393 19.334345681566155 a46.21896989225979,46.21896989225979 0 0,0 -0.6055444883050605,-0.5160581499406981 l 16.522368447178508 -19.052763141402508" fill="#d7ff1c" stroke="none" /><path d="M 86.24171649860922 115.8653595955263 l -13.224244257241983 15.249532436150838 a41.18486749266425,41.18486749266425 0 0,0 -0.531593965638835,-0.46906986730571565 l 13.484780575787406 -15.019639427072834" fill="#ffe815" stroke="none" /><path d="M 85.18274418774928 114.88116024355367 l -26.701627977505666 26.81678778660839 a58.84332231505451,58.84332231505451 0 0,0 -0.7116101597517636,-0.7208573348241645 l 27.15927876231296 -26.35318995780356" fill="#47ff2c" stroke="none" /><line stroke="#e1ed5e" stroke-width="0.3" x1="26.63291911575756" x2="22.317208475507996" y1="142.92168965132927" y2="145.44649492493687" /><path d="M 25.769776987707644 143.4266507060508 a86.0,86.0 0 0,1 -11.730757126820373,-40.83630448921669" fill="none" id="id45" stroke="none" /><text fill="#e1ed5e" style="font-size:6.75px; font-family:Arial;" text-anchor="middle"><textPath startOffset="21.46611528233685" xlink:href="#id45">September</textPath></text><line stroke="#e1ed5e" stroke-width="0.3" x1="15.007084014347285" x2="10.007500721073583" y1="101.09737516637583" y2="101.16192664675087" /><path d="M 14.007167355692545 101.11028546245083 a86.0,86.0 0 0,1 10.666146001902534,-42.60595125391555" fill="none" id="id46" stroke="none" /><text fill="#e1ed5e" style="font-size:6.75px; font-family:Arial;" text-anchor="middle"><textPath startOffset="22.20632615414155" xlink:href="#id46">October</textPath></text><line stroke="#e1ed5e" stroke-width="0.3" x1="26.266209847984243" x2="21.928928074336255" y1="57.711370442889674" y2="55.22380399835377" /><path d="M 25.398753493254645 57.213857153982495 a86.0,86.0 0 0,1 29.58750427330803,-30.492523968695096" fill="none" id="id47" stroke="none" /><text fill="#e1ed5e" style="font-size:6.75px; font-family:Arial;" text-anchor="middle"><textPath startOffset="21.46611528233685" xlink:href="#id47">November</textPath></text><line stroke="#e1ed5e" stroke-width="0.3" x1="56.762969772571076" x2="54.21961505331055" y1="26.818313649435495" y2="22.513508569990535" /><path d="M 56.25429882871897 25.957352633546506 a86.0,86.0 0 0,1 42.265352541879196,-11.944610805530505" fill="none" id="id48" stroke="none" /><text fill="#e1ed5e" style="font-size:6.75px; font-family:Arial;" text-anchor="middle"><textPath startOffset="22.20632615414155" xlink:href="#id48">December</textPath></text></svg>