<?xml version="1.0" encoding="utf-8" ?>
<svg baseProfile="full" height="200mm" version="1.1" viewBox="0,0,200,200" width="200mm" xmlns="http://www.w3.org/2000/svg" xmlns:ev="http://www.w3.org/2001/xml-events" xmlns:xlink="http://www.w3.org/1999/xlink"><defs /><rect fill="#1a1a1a" height="200" width="200" x="0" y="0" /><rect fill="#1a1a1a" height="200" width="180" x="10" y="0" /><text alignment-baseline="middle" fill="#e1ed5e" style="dominant-baseline: central; font-size:9.0px; font-family:Arial;" text-anchor="middle" x="100.0" y="100.0">2024</text><line stroke="#e1ed5e" stroke-width="0.3" x1="100.0" x2="100.0" y1="15.0" y2="10.0" /><path d="M 100.0 14.0 a86.0,86.0 0 0,1 42.35913384403234,11.155469271406648" fill="none" id="id13" stroke="none" /><text fill="#e1ed5e" style="font-size:6.75px; font-family:Arial;" text-anchor="middle"><textPath startOffset="22.145653131862478" xlink:href="#id13">January</textPath></text><path d="M 100.0 79.0 l 0.0 -29.116939104251415 a50.116939104251415,50.116939104251415 0 0,0 0.8603239029601684,0.007384845994038093 l -0.49983097811131366 29.11264865645181" fill="#c4ff1e" stroke="none" /><path d="M 100.72087961077811 79.0123766808444 l 0.8970168803293573 -26.11566773952129 a47.131068496421435,47.131068496421435 0 0,0 0.8083522260842132,0.034714122713613065 l -1.345194867014407 26.096421048381842" fill="#ecff1a" stroke="none" /><path d="M 101.08105385017728 79.02784411241856 l 1.4068284580611001 -27.29209624914148 a48.328331159857036,48.328331159857036 0 0,0 0.8281534723755838,0.04981965641162982 l -1.8751262825691464 27.26392461490516" fill="#dcff1b" stroke="none" /><path d="M 102.15924093988457 79.11130261209362 l 1.3662055634293 -13.216799504401026 a34.28722344137707,34.28722344137707 0 0,0 0.5849467234684279,0.06554450044674495 l -1.5928881884985246 13.19139924344731" fill="#ff5908" stroke="none" /><path d="M 108.07796709384702 80.6158196554323 l 5.052877380543156 -12.125066277880803 a34.13578326807377,34.13578326807377 0 0,0 0.538963257775113,0.23005136600785137 l -5.260275713488699 12.036540262213551" fill="#ff5708" stroke="none" /><path d="M 108.4095320186766 80.7573450057729 l 7.7387754035420215 -17.707832592520926 a40.325009181659226,40.325009181659226 0 0,0 0.631924764352745,0.2826519093364758 l -8.041613570750398 17.572376932274597" fill="#ffb410" stroke="none" /><path d="M 109.3889696526874 81.21577127319529 l 5.740757114438713 -11.485359809612605 a33.840162857348936,33.840162857348936 0 0,0 0.517388338393999,0.2641821721218414 l -5.937072674546291 11.38511968581793" fill="#ff5207" stroke="none" /><line stroke="#e1ed5e" stroke-width="0.3" x1="143.13028292997686" x2="145.6673583964461" y1="26.7553504044142" y2="22.446841604673864" /><path d="M 143.63769802327073 25.89364864446614 a86.0,86.0 0 0,1 29.32050498858742,28.57503671076993" fill="none" id="id14" stroke="none" /><text fill="#e1ed5e" style="font-size:6.75px; font-family:Arial;" text-anchor="middle"><textPath startOffset="20.669276256404974" xlink:href="#id14">February</textPath></text><path d="M 111.27062007382361 82.28071324371311 l 7.614016986166315 -11.97049935686012 a35.18682873366059,35.18682873366059 0 0,0 0.5068819641544905,0.3285547651907865 l -7.818384582577813 11.838030749965439" fill="#ff6709" stroke="none" /><path d="M 111.5731344415666 82.4767994020092 l 11.542949721544478 -17.477497084684828 a41.945228397400456,41.945228397400456 0 0,0 0.5974273100134075,0.4019757565107351 l -11.841273319654887 17.276771654116974" fill="#ffcb12" stroke="none" /><path d="M 112.45986205192187 83.09580414077388 l 12.912238852933008 -17.51793187127794 a42.762441251889186,42.762441251889186 0 0,0 0.5871629581838664,0.4406180302213904 l -13.211054800027641 17.293694813792534" fill="#ffd714" stroke="none" /><path d="M 113.86319453409587 84.22622945171908 l 16.891720219861323 -19.219676839889846 a46.58761790038045,46.58761790038045 0 0,0 0.5961772498486461,0.5331053730260077 l -17.219162496533347 18.92687593698045" fill="#f3ff19" stroke="none" /><path d="M 115.41159269507618 85.73525988315684 l 12.145143922703971 -11.24136389838408 a37.549102187100246,37.549102187100246 0 0,0 0.4337856439006574,0.4768064107068991 l -12.336327267446505 11.031219912119509" fill="#ff8b0c" stroke="none" /><path d="M 115.6541949942343 86.00192230759917 l 16.351516562250463 -14.621626938419048 a42.93545231381958,42.93545231381958 0 0,0 0.48657917212488616,0.5536377777714689 l -16.60010679833394 14.338776882836282" fill="#ffd914" stroke="none" /><line stroke="#e1ed5e" stroke-width="0.3" x1="172.87174338648825" x2="177.1583165268699" y1="56.24261187166439" y2="53.66864786411523" /><path d="M 173.72905801456457 55.72781907015455 a86.0,86.0 0 0,1 12.242430191666344,42.057860355516425" fill="none" id="id15" stroke="none" /><text fill="#e1ed5e" style="font-size:6.75px; font-family:Arial;" text-anchor="middle"><textPath startOffset="22.145653131862474" xlink:href="#id15">March</textPath></text><path d="M 118.36410011445183 89.81374322990088 l 48.27836721470698 -26.77919646621464 a76.20802572356864,76.20802572356864 0 0,0 0.6247412392831446,1.1494535142087363 l -48.73095380360547 25.9464881185313" fill="#42ffd8" stroke="none" /><path d="M 119.16976305983485 91.42560881287824 l 23.394262908130674 -10.463956235795711 a46.62783481138012,46.62783481138012 0 0,0 0.32054664293680574,0.7334734496392813 l -23.570443433084453 10.060820716380581" fill="#f2ff19" stroke="none" /><path d="M 119.83427380445688 93.10060997987247 l 26.72871262476621 -9.297633729989657 a49.29964790513087,49.29964790513087 0 0,0 0.271182287828192,0.8017022480293141 l -26.884380334166767 8.837429807486181" fill="#cfff1d" stroke="none" /><path d="M 119.94978838288452 93.4421083053983 l 24.85590786711731 -8.17063061698427 a47.16439107982116,47.16439107982116 0 0,0 0.24623244862994234,0.771319638280967 l -24.992505031524512 7.742741945011916" fill="#ebff1a" stroke="none" /><path d="M 120.35273937422433 94.82641323984039 l 38.38608187940589 -9.757591906139456 a60.606841351706045,60.606841351706045 0 0,0 0.2476582364964105,1.010530118485768 l -38.5479276424186 9.097205963045594" fill="#46ff2c" stroke="none" /><path d="M 120.51834098615036 95.52812308129327 l 36.01595181932954 -7.849509068731547 a57.86141041892409,57.86141041892409 0 0,0 0.20318251710582358,0.9723018972505526 l -36.145392047259726 7.23009072019559" fill="#66ff29" stroke="none" /><path d="M 120.592083275326 95.88100663000786 l 23.436926128465025 -4.688041615090769 a44.90119747075342,44.90119747075342 0 0,0 0.14469669113413916,0.7571142310155433 l -23.51394911188132 4.285024819041911" fill="#fff417" stroke="none" /><path d="M 120.86939407059847 97.66154086499901 l 26.071556073601393 -2.9213722381090292 a47.23471844431603,47.23471844431603 0 0,0 0.08337514307299597,0.8065788773986066 l -26.117863609156053 2.4733888384274914" fill="#eaff1a" stroke="none" /><path d="M 120.98066250479742 99.09900007780936 l 26.42077446300735 -1.134621737037277 a47.445126010500665,47.445126010500665 0 0,0 0.02795944213590132,0.8140086513594913 l -26.4363585921401 0.6809068211136658" fill="#e7ff1a" stroke="none" /><line stroke="#e1ed5e" stroke-width="0.3" x1="184.99686870605535" x2="189.99668451229388" y1="99.2704041080226" y2="99.22748670261217" /><path d="M 185.99683186730306 99.26182062694052 a86.0,86.0 0 0,1 -10.086455211305974,41.156179273409016" fill="none" id="id16" stroke="none" /><text fill="#e1ed5e" style="font-size:6.75px; font-family:Arial;" text-anchor="middle"><textPath startOffset="21.40746469413373" xlink:href="#id16">April</textPath></text><path d="M 120.98066250479742 100.90099992219065 l 18.33136485618868 0.7872276819331917 a39.34826054191272,39.34826054191272 0 0,0 -0.034773389205074216,0.6745944607928567 l -18.315149877527034 -1.1017939361027789" fill="#ffa50f" stroke="none" /><path d="M 120.93736805541906 101.62068470465957 l 28.67667249657426 2.2197558151871273 a49.76245576015434,49.76245576015434 0 0,0 -0.07323701110525294,0.8511250828546392 l -28.634341862771265 -2.711701945417424" fill="#c9ff1d" stroke="none" /><path d="M 120.86939407059847 102.33845913500097 l 13.038541973815578 1.4609958239620515 a34.12014045658754,34.12014045658754 0 0,0 -0.07021910890766479,0.5815149530320999 l -13.011540778648248 -1.68460445391756" fill="#ff5708" stroke="none" /><path d="M 120.77682067341334 103.0534771498775 l 25.973217709370626 3.817168566403533 a47.25221541208862,47.25221541208862 0 0,0 -0.12483249543923022,0.8015141695098484 l -25.903863721793126 -4.262470917844833" fill="#eaff1a" stroke="none" /><path d="M 120.7213421655516 103.40968896794604 l 23.116630362561576 3.803832729249967 a44.42749971190731,44.42749971190731 0 0,0 -0.1302893180057866,0.7514741632184784 l -23.047926227063556 -4.200099925389034" fill="#ffee16" stroke="none" /><path d="M 120.592083275326 104.11899336999214 l 12.873788623598148 2.575118276197892 a34.12881059584201,34.12881059584201 0 0,0 -0.11984460096090835,0.5734997998318505 l -12.827686311812874 -2.7957345273151515" fill="#ff5708" stroke="none" /><path d="M 120.51834098615036 104.47187691870673 l 53.874787277715896 11.741759135890739 a76.13947417072829,76.13947417072829 0 0,0 -0.2892906212159476,1.274667854779291 l -53.665285794942285 -12.664861324609046" fill="#42ffd7" stroke="none" /><path d="M 120.35273937422433 105.17358676015961 l 37.99435953199985 9.658017617247157 a60.20266139615937,60.20266139615937 0 0,0 -0.2632017904627816,0.9994200691116185 l -37.82296826073234 -10.30881819073158" fill="#4bff2c" stroke="none" /><path d="M 119.31412917781788 108.2440532568976 l 21.963012927394153 9.374704217227604 a44.88009664991722,44.88009664991722 0 0,0 -0.30853168228818734,0.7059808683616048 l -21.798847363089 -9.750347155365054" fill="#fff417" stroke="none" /><path d="M 119.0197475246899 108.90220220490707 l 18.479402768369837 8.64929357534308 a41.403396923750364,41.403396923750364 0 0,0 -0.30682035010734904,0.6411365262685605 l -18.328203160302575 -8.965242603676744" fill="#ffc312" stroke="none" /><path d="M 118.8641267826498 109.22738970284198 l 23.4978377135425 11.49396991735744 a47.158358543171204,47.158358543171204 0 0,0 -0.36195182489431327,0.7241461117038561 l -23.297065975436453 -11.895647885225042" fill="#ebff1a" stroke="none" /><path d="M 118.5362547648365 109.86951160357373 l 25.667503850197765 13.666500072326478 a50.079098647083555,50.079098647083555 0 0,0 -0.4105404628175058,0.7553482114482023 l -25.42911803776492 -14.105103117249284" fill="#c5ff1e" stroke="none" /><line stroke="#e1ed5e" stroke-width="0.3" x1="174.33088141563837" x2="178.70328620479359" y1="141.23008692659167" y2="143.65538615756765" /><path d="M 175.20536237346943 141.71514677278685 a86.0,86.0 0 0,1 -30.301960400862466,31.631185727798858" fill="none" id="id17" stroke="none" /><text fill="#e1ed5e" style="font-size:6.75px; font-family:Arial;" text-anchor="middle"><textPath startOffset="22.145653131862474" xlink:href="#id17">May</textPath></text><path d="M 117.81537515405839 111.11811171558189 l 23.334673668097054 14.562562193895177 a48.50591232531012,48.50591232531012 0 0,0 -0.4469064707853904,0.7026112012664095 l -23.081249505685776 -14.96098706984026" fill="#d9ff1c" stroke="none" /><path d="M 115.6541949942343 113.99807769240083 l 15.257586944531639 13.643428328750108 a41.46795290036801,41.46795290036801 0 0,0 -0.4790581292861865,0.5265688027177339 l -15.021131114403572 -13.903334707025515" fill="#ffc412" stroke="none" /><path d="M 115.41159269507618 114.26474011684316 l 19.064554990908047 17.645867482304634 a46.9775652478136,46.9775652478136 0 0,0 -0.5528681522033971,0.5871268185858707 l -18.75883100496839 -17.970535760835002" fill="#eeff19" stroke="none" /><path d="M 115.16444852881244 114.52719865689866 l 18.936322371994983 18.14056847542932 a47.22335847270249,47.22335847270249 0 0,0 -0.5658104897961338,0.5805714077144065 l -18.62212508104804 -18.462962575211463" fill="#eaff1a" stroke="none" /><path d="M 114.65682725009322 115.03919595460226 l 16.48754998186455 16.91767875526969 a44.62302179804661,44.62302179804661 0 0,0 -0.553171444660165,0.5299257307401192 l -16.19470605133907 -17.198216616315392" fill="#fff016" stroke="none" /><path d="M 114.39649973595853 115.28858382429668 l 8.858973143141649 9.407922479782991 a33.92247695051189,33.92247695051189 0 0,0 -0.42737511830445746,0.3955720291625598 l -8.696168253523224 -9.55861225507793" fill="#ff5407" stroke="none" /><path d="M 113.31354834802062 116.24036423190432 l 16.084598940731492 19.620595388487736 a46.37089053389587,46.37089053389587 0 0,0 -0.6199329426348655,0.49937409583618386 l -15.745415227741375 -19.893817778117324" fill="#f6ff19" stroke="none" /><path d="M 113.03279911837588 116.46651593811092 l 27.614341773592283 34.88981874156018 a65.49552026224312,65.49552026224312 0 0,0 -0.8875892255988639,0.690194750361116 l -27.01134260335819 -35.358714543542085" fill="#33ff55" stroke="none" /><path d="M 112.45986205192187 116.90419585922612 l 22.507800183396814 30.536153696964774 a58.93491467896525,58.93491467896525 0 0,0 -0.8195292494403734,0.5932759763012748 l -21.980289923582472 -30.918030444639125" fill="#59ff2a" stroke="none" /><path d="M 111.5731344415666 117.5232005979908 l 14.920438553429012 22.591445653882886 a48.07384168083641,48.07384168083641 0 0,0 -0.6925251343359449,0.44888642522525685 l -14.530427786836057 -22.84424592081204" fill="#dfff1b" stroke="none" /><line stroke="#e1ed5e" stroke-width="0.3" x1="143.1302829299769" x2="145.66735839644613" y1="173.24464959558577" y2="177.55315839532614" /><path d="M 143.63769802327073 174.10635135553383 a86.0,86.0 0 0,1 -40.68552437913181,11.842963189579606" fill="none" id="id18" stroke="none" /><text fill="#e1ed5e" style="font-size:6.75px; font-family:Arial;" text-anchor="middle"><textPath startOffset="21.407464694133747" xlink:href="#id18">June</textPath></text><path d="M 110.34350942703117 118.27599006163325 l 27.311857724365467 48.25743562729205 a76.4501367507621,76.4501367507621 0 0,0 -1.147683329854243,0.6366005965877735 l -26.47943020635513 -48.71916913931297" fill="#42ffdb" stroke="none" /><path d="M 109.06512990194946 118.94263497670748 l 17.20988392707559 35.96203835446324 a60.867885664922085,60.867885664922085 0 0,0 -0.9463834110655153,0.4429552220784425 l -16.590011802138573 -36.252169808112214" fill="#43ff2d" stroke="none" /><path d="M 106.38641147887787 120.00534299687104 l 12.002308320824563 37.597059867881086 a60.466369426857206,60.466369426857206 0 0,0 -0.9915314623039576,0.30717898159052975 l -11.35513622564898 -37.79755543727826" fill="#48ff2c" stroke="none" /><path d="M 105.69591212413111 120.21278271476187 l 12.056744541785744 42.78513297950185 a65.45146446428438,65.45146446428438 0 0,0 -1.0840588893685705,0.2954650708931622 l -11.320504251482477 -42.98579854453916" fill="#33ff54" stroke="none" /><path d="M 104.64783097203109 120.47920084513623 l 12.238670292673488 53.92583949573684 a76.29720802945425,76.29720802945425 0 0,0 -1.2797497226191443,0.2789154956614061 l -11.311158153435208 -54.12798644953197" fill="#42ffd9" stroke="none" /><path d="M 100.72087961077811 120.9876233191556 l 0.9231514100331795 26.876546056574973 a47.89239551354699,47.89239551354699 0 0,0 -0.821894366682875,0.02116908342572262 l -0.46164372927956066 -26.888432857350743" fill="#e1ff1b" stroke="none" /><line stroke="#e1ed5e" stroke-width="0.3" x1="101.45913802915013" x2="101.54496967792366" y1="184.9874750549273" y2="189.98673829345242" /><path d="M 101.47630435890484 185.9873277026323 a86.0,86.0 0 0,1 -42.54439059252881,-10.42667462771756" fill="none" id="id19" stroke="none" /><text fill="#e1ed5e" style="font-size:6.75px; font-family:Arial;" text-anchor="middle"><textPath startOffset="22.145653131862474" xlink:href="#id19">July</textPath></text><path d="M 94.6519064749342 120.30758222061772 l -7.3289905058825155 27.829370708416032 a49.7782552609042,49.7782552609042 0 0,0 -0.8244668099410877,-0.2247120952904935 l 7.805638716758298 -27.699458118981397" fill="#c9ff1d" stroke="none" /><path d="M 93.61358852112213 120.00534299687104 l -7.9766753715684136 24.986821990830787 a47.22915597545699,47.22915597545699 0 0,0 -0.7702339067467726,-0.2531911839370074 l 8.40443201596293 -24.84620988549176" fill="#eaff1a" stroke="none" /><path d="M 92.93061703081489 119.77432235084164 l -4.453713204659717 12.457828490976915 a34.230005745273,34.230005745273 0 0,0 -0.5516097753877248,-0.20255875011389177 l 4.666912131701561 -12.379538891854304" fill="#ff5808" stroke="none" /><line stroke="#e1ed5e" stroke-width="0.3" x1="58.13341422392154" x2="55.67067388415222" y1="173.97424548756322" y2="178.32567169271397" /><path d="M 57.64086615596768 174.84453072859336 a86.0,86.0 0 0,1 -31.369924170532247,-30.572349798747897" fill="none" id="id20" stroke="none" /><text fill="#e1ed5e" style="font-size:6.75px; font-family:Arial;" text-anchor="middle"><textPath startOffset="22.145653131862474" xlink:href="#id20">August</textPath></text><path d="M 87.2517909369889 116.68781488649013 l -15.899287698490667 20.81267797131597 a47.19074099098912,47.19074099098912 0 0,0 -0.6395245519681044,-0.4972981597400677 l 16.254222195094002 -20.53667875995511" fill="#ebff1a" stroke="none" /><path d="M 84.58840730492382 114.26474011684316 l -19.17404649992552 17.74721118843788 a47.12675954167146,47.12675954167146 0 0,0 -0.5444314388895892,-0.5984255216901251 l 19.475875639656987 -17.41544809119008" fill="#ecff1a" stroke="none" /><path d="M 82.37810715431573 111.42229804090323 l -10.00736935091753 6.486655907658347 a32.925776544529185,32.925776544529185 0 0,0 -0.3033597738497922,-0.47693195121102416 l 10.117246816393212 -6.313910281768652" fill="#ff4406" stroke="none" /><line stroke="#e1ed5e" stroke-width="0.3" x1="26.387840678322732" x2="22.057713659400548" y1="142.50000000000003" y2="145.00000000000006" /><path d="M 25.521815274538298 143.00000000000003 a86.0,86.0 0 0,1 -11.493303480769221,-40.785679425670985" fill="none" id="id21" stroke="none" /><text fill="#e1ed5e" style="font-size:6.75px; font-family:Arial;" text-anchor="middle"><textPath startOffset="21.40746469413373" xlink:href="#id21">September</textPath></text><path d="M 81.63589988554817 110.18625677009913 l -16.049680497951922 8.902487222966812 a39.353379057858135,39.353379057858135 0 0,0 -0.32261272443623695,-0.593571076334237 l 16.20013857200349 -8.625661313157988" fill="#ffa60f" stroke="none" /><path d="M 80.9802524753101 108.90220220490708 l -24.04360715399036 11.253622180963328 a47.546921802108926,47.546921802108926 0 0,0 -0.33965604374467484,-0.7422097537384728 l 24.23324766259009 -10.839223445010166" fill="#e6ff1a" stroke="none" /><path d="M 80.5471966667186 107.91128576633889 l -24.319531996960453 9.890541945818454 a47.253808419602244,47.253808419602244 0 0,0 -0.2991420906761347,-0.754033482580656 l 24.485732762602716 -9.471607446024233" fill="#eaff1a" stroke="none" /><path d="M 80.41425534168474 107.57618678355246 l -24.642001872343748 9.53205569471489 a47.42136147218268,47.42136147218268 0 0,0 -0.28716867195266305,-0.7617490200450714 l 24.802001228110846 -9.107638394475673" fill="#e8ff1a" stroke="none" /><path d="M 80.16572619554312 106.89939002012753 l -24.733518289891837 8.603601570407694 a47.18718936768006,47.18718936768006 0 0,0 -0.2595622993805921,-0.7673498169206374 l 24.877566010844795 -8.177750079012895" fill="#ebff1a" stroke="none" /><path d="M 80.05021161711548 106.5578916946017 l -37.52269679456429 12.334455731833264 a60.49799454323421,60.49799454323421 0 0,0 -0.31584356317397944,-0.9893754631293257 l 37.72890507351552 -11.688511235012548" fill="#47ff2c" stroke="none" /><path d="M 79.56144815229197 104.8234425847677 l -38.19956663082191 9.01499371284663 a60.24891084380899,60.24891084380899 0 0,0 -0.22891469944364237,-1.00864040334533 l 38.34869219182322 -8.357918975562272" fill="#4aff2c" stroke="none" /><path d="M 79.48165901384964 104.47187691870673 l -12.774944940933075 2.7842397910078907 a34.074831144519734,34.074831144519734 0 0,0 -0.11965505008904982,-0.5725927302918375 l 12.820857701846492 -2.564530609430644" fill="#ff5608" stroke="none" /><path d="M 79.0935383218832 101.97986365728391 l -39.267517375714704 3.7186747217640668 a60.44320553071648,60.44320553071648 0 0,0 -0.08895621502334876,-1.0338060597990637 l 39.3255672134358 -3.044047614589341" fill="#48ff2c" stroke="none" /><path d="M 79.01933749520258 100.90099992219065 l -26.10121397926188 1.1208984348811204 a47.12527099366693,47.12527099366693 0 0,0 -0.027770951376427707,-0.8085209485588757 l 26.116609617635156 -0.6726712217581249" fill="#ecff1a" stroke="none" /><line stroke="#e1ed5e" stroke-width="0.3" x1="15.003131293944662" x2="10.003315487706104" y1="100.72959589197737" y2="100.7725132973878" /><path d="M 14.003168132696942 100.73817937305945 a86.0,86.0 0 0,1 10.791469493833604,-42.45332614584628" fill="none" id="id22" stroke="none" /><text fill="#e1ed5e" style="font-size:6.75px; font-family:Arial;" text-anchor="middle"><textPath startOffset="22.145653131862435" xlink:href="#id22">October</textPath></text><path d="M 79.00077361379809 99.81974689727619 l -28.32691286552439 -0.243152478129048 a49.327956432094275,49.327956432094275 0 0,0 0.014536639641811308,-0.8466863821377429 l 28.318564794283912 0.7293857762358433" fill="#cfff1d" stroke="none" /><path d="M 79.00696218219943 99.45929381324524 l -26.5552463150251 -0.6839689471313966 a47.56405316159969,47.56405316159969 0 0,0 0.028029525979678113,-0.8160490660029832 l 26.539592102048573 1.1397242776985184" fill="#e6ff1a" stroke="none" /><path d="M 79.0935383218832 98.0201363427161 l -39.13981246749038 -3.7065809341809155 a60.314929253553906,60.314929253553906 0 0,0 0.1064633392889026,-1.0299362318643088 l 39.07041673571981 4.377921688328137" fill="#4aff2c" stroke="none" /><path d="M 79.22317932658666 96.9465228501225 l -52.60203206215112 -7.730687262678002 a74.16706972008996,74.16706972008996 0 0,0 0.19593706478798434,-1.2580565117052451 l 52.46157350522486 8.632531956314697" fill="#3fffc1" stroke="none" /><path d="M 79.64726062577567 94.8264132398404 l -11.684776181424644 -2.9702244123563175 a33.05637704576902,33.05637704576902 0 0,0 0.14452014948984782,-0.5487665472837646 l 11.63206655113007 3.1703714640128666" fill="#ff4606" stroke="none" /><path d="M 79.73907114497095 94.47779374421319 l -38.10175971948562 -10.384804042545351 a60.49162251317972,60.49162251317972 0 0,0 0.28166486029494636,-0.9995292229677838 l 37.917876367116094 11.037341189416148" fill="#48ff2c" stroke="none" /><path d="M 79.83685265289637 94.1308016681162 l -50.159399800398596 -14.600670250970559 a73.2412189761476,73.2412189761476 0 0,0 0.36175470283933425,-1.2041637514114902 l 49.90136877755563 15.459571605972773" fill="#3effb6" stroke="none" /><path d="M 80.16572619554312 93.10060997987247 l -24.73435690738187 -8.603893285103089 a47.18807727350733,47.18807727350733 0 0,0 0.27270176351743414,-0.7627953671405531 l 24.583014973820493 9.027223608624563" fill="#ebff1a" stroke="none" /><path d="M 80.5471966667186 92.08871423366112 l -51.08062095580493 -20.77404385269353 a76.1433652874419,76.1433652874419 0 0,0 0.5028150893041153,-1.2065731709237724 l 50.71648002196434 21.64784953305857" fill="#42ffd7" stroke="none" /><path d="M 81.1358732173502 90.77261029715801 l -16.50883410806304 -8.075298030480552 a39.37803150200338,39.37803150200338 0 0,0 0.3022359302401707,-0.6046743203036006 l 16.367778264611125 8.357504206947922" fill="#ffa60f" stroke="none" /><path d="M 81.46374523516351 90.13048839642627 l -11.006967857844476 -5.860590414372057 a33.4699583571338,33.4699583571338 0 0,0 0.27438137996957823,-0.5048308349251377 l 10.904741128259547 6.048676082771814" fill="#ff4d07" stroke="none" /><line stroke="#e1ed5e" stroke-width="0.3" x1="26.387840678322718" x2="22.05771365940052" y1="57.49999999999999" y2="54.99999999999999" /><path d="M 25.521815274538284 56.99999999999999 a86.0,86.0 0 0,1 29.574782752854787,-30.34633250058573" fill="none" id="id23" stroke="none" /><text fill="#e1ed5e" style="font-size:6.75px; font-family:Arial;" text-anchor="middle"><textPath startOffset="21.40746469413373" xlink:href="#id23">November</textPath></text><path d="M 81.99639281039701 89.18935116829357 l -33.62697078482029 -20.19202977493757 a60.22360552773193,60.22360552773193 0 0,0 0.5398100883962108,-0.8817392110921128 l 33.27539273196869 20.76630610215423" fill="#4bff2c" stroke="none" /><path d="M 83.42222388311158 87.10902102172516 l -6.063425493081759 -4.714956337721599 a28.680881588514097,28.680881588514097 0 0,0 0.3055655242926179,-0.3860720579055954 l 5.981593538147579 4.818348339541877" fill="#ff0000" stroke="none" /><path d="M 83.64595745247003 86.82634096563983 l -49.06212764258992 -39.520977103080504 a84.0,84.0 0 0,0 0.9142127230454804,-1.1151908732060285 l 48.376468100305814 40.357370257985025" fill="#4dd2ff" stroke="none" /><path d="M 85.08716467003674 85.21462403516908 l -18.754833736373797 -18.59453697534153 a47.41023653446459,47.41023653446459 0 0,0 0.5779716010177103,-0.5730317024873322 l 18.43287021522611 18.913748688057535" fill="#e8ff1a" stroke="none" /><path d="M 85.60350026404147 84.71141617570332 l -7.913856313188067 -8.404241158384567 a32.543846464418685,32.543846464418685 0 0,0 0.41000632863880215,-0.37949573674900444 l 7.768420213235311 8.538854641265937" fill="#ff3e05" stroke="none" /><path d="M 85.86807049272753 84.46653392183569 l -26.397385053727575 -29.015350315277562 a60.226425934477355,60.226425934477355 0 0,0 0.7707117599059403,-0.6891752081524372 l 25.895408266998242 29.4642210533134" fill="#4bff2c" stroke="none" /><path d="M 86.13680546590413 84.22622945171909 l -10.37835455073588 -11.808662350469666 a36.72115611805251,36.72115611805251 0 0,0 0.4770611864684163,-0.41207409056659344 l 10.174113884504616 11.98508057350097" fill="#ff7e0b" stroke="none" /><path d="M 86.96720088162412 83.53348406188908 l -24.451048307295626 -30.89310078353894 a60.3984446310714,60.3984446310714 0 0,0 0.818514128642939,-0.6364815371711975 l 23.917124234017443 31.308283372330944" fill="#49ff2c" stroke="none" /><path d="M 87.25179093698888 83.31218511350988 l -23.943012565226912 -31.34217202891074 a60.44109022565741,60.44109022565741 0 0,0 0.829905129216374,-0.6227762807739066 l 23.401454447099788 31.748567336948646" fill="#48ff2c" stroke="none" /><path d="M 87.83215693770416 82.88440491214696 l -15.165753477812489 -21.33253152588421 a47.17397523978017,47.17397523978017 0 0,0 0.6640408880822031,-0.4635521118956776 l 14.79731749855652 21.589728453585014" fill="#ebff1a" stroke="none" /><path d="M 89.03521579738668 82.08984904055464 l -20.496653063827065 -33.479742396483054 a60.2556484821453,60.2556484821453 0 0,0 0.8868117703914699,-0.5325049879483336 l 19.91890853687816 33.826661384967316" fill="#4aff2c" stroke="none" /><line stroke="#e1ed5e" stroke-width="0.3" x1="56.869717070023135" x2="54.33264160355391" y1="26.7553504044142" y2="22.446841604673864" /><path d="M 56.362301976729285 25.89364864446614 a86.0,86.0 0 0,1 42.16139366436587,-11.88097634709845" fill="none" id="id24" stroke="none" /><text fill="#e1ed5e" style="font-size:6.75px; font-family:Arial;" text-anchor="middle"><textPath startOffset="22.145653131862474" xlink:href="#id24">December</textPath></text><path d="M 89.97174638481275 81.54914285379989 l -11.887694289590709 -21.872018553934556 a45.89382395588161,45.89382395588161 0 0,0 0.6954251461468639,-0.37027472034607056 l 11.510480327657284 22.072863742003204" fill="#fcff18" stroke="none" /><path d="M 90.61103034731259 81.2157712731953 l -17.87141076995838 -35.75479312338513 a60.97239740376668,60.97239740376668 0 0,0 0.9402517131967068,-0.459924229538716 l 17.25499880749962 36.05631110302106" fill="#42ff2d" stroke="none" /><path d="M 92.25597844496254 80.48000691201159 l -8.8449330290977 -22.2950091712228 a44.98541794995727,44.98541794995727 0 0,0 0.7202545380046239,-0.2786099281299257 l 8.460906228599546 22.443558987490768" fill="#fff517" stroke="none" /><path d="M 95.35216902796891 79.52079915486377 l -2.004786972616043 -8.833461309367497 a30.058101871234587,30.058101871234587 0 0,0 0.504171103054287,-0.10988174532966472 l 1.8528534529426377 8.866574512830876" fill="#ff1602" stroke="none" /><path d="M 96.05791012581881 79.37332000966035 l -4.911233117462101 -25.697646960139508 a47.162745842552994,47.162745842552994 0 0,0 0.7965232295577956,-0.1451530660102523 l 4.4693751543532665 25.778168200081122" fill="#ebff1a" stroke="none" /><path d="M 96.41257539226777 79.30868818359171 l -5.842759351762222 -33.699483288087976 a55.20223692577323,55.20223692577323 0 0,0 0.9350798836329484,-0.1538670390121753 l 5.263401965076201 33.79481632559582" fill="#85ff25" stroke="none" /><path d="M 96.76829788921471 79.25015418208739 l -1.6115401866325474 -10.347244039107865 a31.471987441645684,31.471987441645684 0 0,0 0.5345365617650115,-0.07855846680200214 l 1.4336785192598511 10.373383579208753" fill="#ff2d04" stroke="none" /><path d="M 97.48249496171623 79.15144685158666 l -3.132586079212294 -25.942306518266214 a47.13075511789417,47.13075511789417 0 0,0 0.8040598804374224,-0.09009658671143107 l 2.6867902971740723 25.992258865484615" fill="#ecff1a" stroke="none" /><path d="M 97.84075906011542 79.11130261209362 l -2.2290434049543855 -21.563972917765064 a42.67887364461714,42.67887364461714 0 0,0 0.7294031612042307,-0.06907523772364853 l 1.8585406803651394 21.599059910993894" fill="#ffd513" stroke="none" /></svg>